<svg width="28" height="28" viewBox="0 0 28 28" fill="none" xmlns="http://www.w3.org/2000/svg">
<path fill-rule="evenodd" clip-rule="evenodd" d="M19.8333 2.33325H8.16668C4.94502 2.33325 2.33334 4.94492 2.33334 8.16659V19.8333C2.33334 23.0549 4.94502 25.6666 8.16668 25.6666H19.8333C23.055 25.6666 25.6667 23.0549 25.6667 19.8333V8.16659C25.6667 4.94492 23.055 2.33325 19.8333 2.33325ZM14.5883 10.3226C13.8254 10.2095 13.0463 10.3398 12.3617 10.695C11.6772 11.0502 11.122 11.6122 10.7753 12.3011C10.4286 12.99 10.3079 13.7707 10.4304 14.5322C10.5529 15.2936 10.9124 15.997 11.4578 16.5424C12.0031 17.0877 12.7065 17.4472 13.468 17.5697C14.2294 17.6923 15.0101 17.5716 15.699 17.2248C16.3879 16.8781 16.9499 16.323 17.3051 15.6384C17.6603 14.9538 17.7906 14.1747 17.6775 13.4118C17.5621 12.6336 17.1995 11.9132 16.6432 11.3569C16.0869 10.8006 15.3665 10.438 14.5883 10.3226ZM11.4406 8.91977C12.4986 8.37081 13.7027 8.16942 14.8817 8.34426C16.0843 8.52259 17.1977 9.083 18.0574 9.94269C18.9171 10.8024 19.4775 11.9158 19.6559 13.1184C19.8307 14.2974 19.6293 15.5016 19.0804 16.5595C18.5314 17.6175 17.6628 18.4754 16.5982 19.0113C15.5335 19.5472 14.327 19.7337 13.1502 19.5443C11.9735 19.355 10.8864 18.7994 10.0436 17.9566C9.20075 17.1138 8.64515 16.0267 8.45579 14.8499C8.26644 13.6731 8.45296 12.4666 8.98883 11.402C9.5247 10.3373 10.3826 9.46872 11.4406 8.91977ZM20.4167 6.58325C19.8644 6.58325 19.4167 7.03097 19.4167 7.58325C19.4167 8.13554 19.8644 8.58325 20.4167 8.58325H20.4283C20.9806 8.58325 21.4283 8.13554 21.4283 7.58325C21.4283 7.03097 20.9806 6.58325 20.4283 6.58325H20.4167Z" fill="#F53838"/>
</svg>
