<svg width="28" height="28" viewBox="0 0 28 28" fill="none" xmlns="http://www.w3.org/2000/svg">
<path d="M26.8334 3.50001C25.7161 4.28807 24.4791 4.89081 23.17 5.28501C22.4674 4.47711 21.5336 3.90449 20.4949 3.64459C19.4562 3.3847 18.3628 3.45007 17.3624 3.83188C16.3621 4.21368 15.5032 4.89348 14.9018 5.77935C14.3005 6.66522 13.9857 7.7144 14 8.78501V9.95168C11.9498 10.0048 9.91817 9.55013 8.0862 8.62803C6.25422 7.70594 4.67872 6.34509 3.50002 4.66668C3.50002 4.66668 -1.16665 15.1667 9.33335 19.8333C6.93064 21.4643 4.06837 22.2821 1.16669 22.1667C11.6667 28 24.5 22.1667 24.5 8.75001C24.4989 8.42504 24.4677 8.10087 24.4067 7.78168C25.5974 6.60742 26.4377 5.12484 26.8334 3.50001V3.50001Z" fill="#F53838"/>
</svg>
